{"asset":{"version":"2.0","generator":"Paritas procedural d10"},"scenes":[{"nodes":[0,1]}],"scene":0,"nodes":[{"mesh":0,"name":"D10"},{"light":0,"name":"Softbox","translation":[0,4,3]}],"extensionsUsed":["KHR_lights_punctual"],"extensions":{"KHR_lights_punctual":{"lights":[{"type":"point","color":[1,0.86,0.58],"intensity":80}]}},"materials":[{"name":"polished plastic","pbrMetallicRoughness":{"baseColorFactor":[0.02,0.28,0.86,1],"metallicFactor":0,"roughnessFactor":0.42}}],"meshes":[{"name":"Rounded D10 fallback mesh","primitives":[{"attributes":{"POSITION":0,"NORMAL":1},"indices":2,"material":0}]}],"buffers":[{"uri":"data:application/octet-stream;base64,","byteLength":1560}],"bufferViews":[{"buffer":0,"byteOffset":0,"byteLength":720,"byteStride":12},{"buffer":0,"byteOffset":720,"byteLength":720,"byteStride":12},{"buffer":0,"byteOffset":1440,"byteLength":120}],"accessors":[{"bufferView":0,"componentType":5126,"count":60,"type":"VEC3","min":[-0.8749719949915414,-1.18,-0.92],"max":[0.8749719949915413,1.18,0.92]},{"bufferView":1,"componentType":5126,"count":60,"type":"VEC3"},{"bufferView":2,"componentType":5123,"count":60,"type":"SCALAR"}]}